# xmcd CD Database Entry
#
# Track frame offsets:
# 150
# 12033
# 32462
# 46704
# 67921
# 82010
# 95130
# 117489
# 130974
# 147681
# 158913
#
# Disc length: 2314 seconds
#
# Revision: 3
# Processed by: cddbd v1.4PL0 Copyright (c) Steve Scherf et al.
# Submitted via: tcd 2.0b
#
DISCID=9109080b
DTITLE=The Legendary Blues Band - Life of ease
DYEAR=1900
DGENRE=
TTITLE0=Life of ease
TTITLE1=Pay back
TTITLE2=For you my love
TTITLE3=Eye to eye
TTITLE4=Lucille
TTITLE5=Think like a million
TTITLE6=Woke up with the blues
TTITLE7=Hush hush
TTITLE8=Love you to the bone
TTITLE9=Snakeskin strut
TTITLE10=How long, how long
EXTD=
EXTT0=
EXTT1=
EXTT2=
EXTT3=
EXTT4=
EXTT5=
EXTT6=
EXTT7=
EXTT8=
EXTT9=
EXTT10=
PLAYORDER=
